<svg width="141" height="32" viewBox="0 0 141 32" fill="none" xmlns="http://www.w3.org/2000/svg">
<path d="M8.609 7.05876L8.27682 8.69197C9.27336 7.83384 10.436 7.19717 11.737 6.83731C13.0381 6.47744 14.3945 6.72658 15.7785 7.61239L13.2042 12.1522C12.872 11.8477 12.5675 11.6262 12.2907 11.4601C11.9862 11.294 11.654 11.211 11.2664 11.1556C10.8789 11.128 10.436 11.1833 9.9654 11.3771C9.49481 11.5709 8.99654 11.9584 8.49827 12.512C7.97232 13.0657 7.47405 13.8684 6.92041 14.9203L4.73356 25.1902H0L3.87543 7.00339H8.609V7.05876Z" fill="#2B2B2B"/>
<path d="M28.5951 25.2456H23.8615L24.1383 23.8892C22.5605 25.2733 20.9272 25.9653 19.2663 25.993C17.6055 26.0207 16.2214 25.467 15.1695 24.3875C14.1176 23.3079 13.7854 21.8407 14.1729 19.9861C14.5605 18.1314 15.5293 16.6643 17.0241 15.5847C18.5466 14.5051 20.1245 13.9792 21.8131 13.9792C23.474 13.9792 24.8027 14.6989 25.7992 16.083C25.9099 15.5847 26.0207 15.0864 26.1591 14.6158C26.4913 13.5916 26.6297 12.7335 26.602 11.9861C26.5466 11.2387 25.9653 10.7681 24.8857 10.5189C24.0276 10.3529 23.2248 10.4359 22.4774 10.7681C21.73 11.1003 21.2871 11.7646 21.1764 12.7058H16.6366C16.775 11.903 16.9688 11.2387 17.2179 10.6574C17.467 10.076 17.91 9.49472 18.4636 8.91341C19.0172 8.3321 19.8477 7.83382 20.8442 7.41859C21.8684 7.00337 23.1418 6.78192 24.692 6.69887C28.0968 6.67119 30.1176 7.47396 30.8096 9.05182C31.5016 10.6297 31.5016 12.5397 30.8096 14.7819L28.5951 25.2456ZM22.5328 17.1072C21.3425 17.1072 20.4567 17.5778 19.8753 18.5466C19.2664 19.4878 19.0726 20.4567 19.2663 21.3978C19.4601 22.339 20.1522 22.8096 21.3148 22.8096C22.5051 22.8096 23.4186 22.339 24.0276 21.3978C24.6366 20.4567 24.8304 19.5155 24.6366 18.5466C24.4151 17.5778 23.7231 17.1072 22.5328 17.1072Z" fill="#2B2B2B"/>
<path d="M43.045 0.304573L40.2491 13.481L47.2249 6.8928H53.038L44.3183 15.0866L48.7197 25.2181H43.3218L40.4983 18.6852C40.2491 18.9343 40.0277 19.1281 39.8339 19.2942C39.4464 19.6264 39.1695 19.9032 39.0034 20.097C38.8374 20.2907 38.6989 20.5675 38.6159 20.872C38.5329 21.2042 38.4221 21.6748 38.3114 22.3115C38.2007 22.9482 38.0069 23.917 37.7301 25.1904H32.9412L38.256 0.249207H43.045V0.304573Z" fill="#2B2B2B"/>
<path d="M65.1073 25.2456H60.3737L60.6505 23.8892C59.0727 25.2733 57.4395 25.9653 55.7786 25.993C54.1177 26.0207 52.7336 25.467 51.6817 24.3875C50.6298 23.3079 50.2976 21.8407 50.6851 19.9861C51.0727 18.1314 52.0415 16.6643 53.5363 15.5847C55.0588 14.5051 56.6367 13.9792 58.3253 13.9792C59.9862 13.9792 61.3149 14.6989 62.3114 16.083C62.4222 15.5847 62.5329 15.0864 62.6713 14.6158C63.0035 13.5916 63.1419 12.7335 63.1142 11.9861C63.0588 11.2387 62.4775 10.7681 61.3979 10.5189C60.5398 10.3529 59.737 10.4359 58.9896 10.7681C58.2422 11.1003 57.7993 11.7646 57.6886 12.7058H53.1488C53.2872 11.903 53.481 11.2387 53.7301 10.6574C53.9793 10.076 54.4222 9.49472 54.9758 8.91341C55.5571 8.3321 56.3599 7.83382 57.3564 7.41859C58.3806 7.00337 59.654 6.78192 61.2042 6.69887C64.609 6.67119 66.6298 7.47396 67.3218 9.05182C68.0138 10.6297 68.0138 12.5397 67.3218 14.7819L65.1073 25.2456ZM59.045 17.1072C57.8547 17.1072 56.9689 17.5778 56.3876 18.5466C55.7786 19.4878 55.5848 20.4567 55.7786 21.3978C55.9723 22.339 56.6644 22.8096 57.827 22.8096C59.0173 22.8096 59.9308 22.339 60.5398 21.3978C61.1488 20.4567 61.3426 19.5155 61.1488 18.5466C60.955 17.5778 60.263 17.1072 59.045 17.1072Z" fill="#2B2B2B"/>
<path d="M78.1176 6.92041L77.6747 9.02422C80.3598 7.19723 82.9065 6.44982 85.2595 6.75432C87.6401 7.05882 88.9134 8.77508 89.1072 11.9031L86.256 25.218H81.5224L83.8477 14.3391C84.0415 13.3979 83.9584 12.4844 83.5986 11.6263C83.2387 10.7682 82.519 10.3529 81.4948 10.3252C80.3875 10.2422 78.8096 11.2941 76.7335 13.4256L74.2422 25.0796H69.5086L73.3564 6.89273H78.1176V6.92041Z" fill="#2B2B2B"/>
<path d="M96.0697 20.2674C96.54 20.8729 96.7208 21.5851 96.54 22.4042C96.3591 23.259 95.8888 23.9713 95.1652 24.5767C94.4417 25.1821 93.6096 25.467 92.7414 25.467C91.8732 25.467 91.222 25.1821 90.7517 24.5767C90.2814 23.9713 90.1367 23.259 90.3176 22.4042C90.4984 21.5851 90.9687 20.8729 91.6923 20.2674C92.4158 19.662 93.2117 19.3771 94.0799 19.3771C94.9482 19.3771 95.5994 19.6976 96.0697 20.2674Z" fill="#99CA3C"/>
<path d="M108.983 1.07968L107.709 7.05892H111.585L110.754 11.0174H106.879C106.491 12.789 106.159 14.2838 105.882 15.5295C105.384 17.6333 105.08 19.1281 104.997 19.9863C104.914 20.8444 105.135 21.2596 105.661 21.2596C106.187 21.2596 107.128 21.0105 108.429 20.5122L108.291 24.6368C105.827 25.8824 103.723 26.1593 101.952 25.5226C100.18 24.8859 99.488 23.5295 99.9032 21.5087L102.118 11.0174H99.6818L100.512 7.05892H102.948L104 2.13159L108.983 1.07968Z" fill="#2B2B2B"/>
<path d="M120 6.89273L116.097 25.2457H111.336L115.239 6.89273H120ZM120.664 0.692041C121.024 1.13495 121.135 1.71626 120.997 2.35294C120.858 3.0173 120.498 3.57093 119.945 4.01384C119.391 4.45675 118.782 4.70588 118.118 4.70588C117.453 4.70588 116.955 4.48443 116.568 4.01384C116.18 3.54325 116.069 2.98962 116.208 2.35294C116.346 1.68858 116.706 1.13495 117.26 0.692041C117.813 0.249135 118.45 0 119.114 0C119.779 0 120.305 0.221453 120.664 0.692041Z" fill="#2B2B2B"/>
<path d="M130.63 25.6056C128.719 25.6056 127.225 24.8858 126.09 23.4741L124.263 32H119.529L124.844 7.05884H129.578L129.162 9.02424C131.266 7.39102 133.287 6.69898 135.197 6.92043C137.107 7.14189 138.602 8.11074 139.681 9.77164C140.761 11.4602 141.01 13.5917 140.457 16.2492C139.903 18.8235 138.685 21.0381 136.775 22.8651C134.837 24.6921 132.789 25.6056 130.63 25.6056ZM126.948 19.4325C127.474 21.3149 128.526 22.2838 130.131 22.2838C131.598 22.2838 132.816 21.6471 133.841 20.3737C134.865 19.1004 135.501 17.6886 135.834 16.1384C136.166 14.6159 136.083 13.2042 135.64 11.9031C135.169 10.6298 134.228 9.9931 132.761 9.9931C131.155 9.9931 129.688 10.9343 128.36 12.7889L126.948 19.4325Z" fill="#2B2B2B"/>
</svg>
